A story set in 19th century China and centered on the lifelong friendship between two girls who develop their own secret code as a way to contend with the rigid cultural norms imposed on women.
Directed by Wayne Wang. Stars: Bingbing Li, Gianna Jun, Vivian Wu. 

ATTENTION: NO SUBTITLES EMBEDDED

Snow.Flower.and.the.Secret.Fan.LIMITED.BluRay.720p.x264.DTS-DOC.mkv
Format                                   : Matroska
Format version                           : Version 2
File size                                : 4.37 GiB
Duration                                 : 1h 44mn
Overall bit rate                         : 6 003 Kbps
Encoded date                             : UTC 2011-11-04 02:18:51
Writing application                      : mkvmerge v4.8.0 ('I Got The...') built on May 24 2011 03:12:58
Writing library                          : libebml v1.2.0 + libmatroska v1.1.0

Video
ID                                       : 1
Format                                   : AVC
Format/Info                              : Advanced Video Codec
Format profile                           : High@L4.1
Format settings, CABAC                   : Yes
Format settings, ReFrames                : 5 frames
Muxing mode                              : Header stripping
Codec ID                                 : V_MPEG4/ISO/AVC
Duration                                 : 1h 44mn
Bit rate                                 : 4 496 Kbps
Width                                    : 1 280 pixels
Height                                   : 544 pixels
Display aspect ratio                     : 2.35:1
Frame rate                               : 23.976 fps
Color space                              : YUV
Chroma subsampling                       : 4:2:0
Bit depth                                : 8 bits
Scan type                                : Progressive
Bits/(Pixel*Frame)                       : 0.269
Stream size                              : 3.19 GiB (73%)
Writing library                          : x264 core 119 r2106 

Audio
ID                                       : 2
Format                                   : DTS
Format/Info                              : Digital Theater Systems
Muxing mode                              : Header stripping
Codec ID                                 : A_DTS
Duration                                 : 1h 44mn
Bit rate mode                            : Constant
Bit rate                                 : 1 510 Kbps
Channel(s)                               : 6 channels
Channel positions                        : Front: L C R, Side: L R, LFE
Sampling rate                            : 48.0 KHz
Bit depth                                : 24 bits
Compression mode                         : Lossy
Delay relative to video                  : 16ms
Stream size                              : 1.10 GiB (25%)